<svg viewBox="0 0 800 800" xmlns="http://www.w3.org/2000/svg"><path d="M167.06865734922826,202.4943519422129 L167.05190532787628,180.06735671852053 M147.6406356832101,213.68866198250186 L147.62280090028625,191.2610412786643 M167.06865734922826,202.4943519422129 L169.10700788556292,203.99639954619087 M169.10700788556292,203.99639954619087 L170.46238256068148,205.73647104102824 M170.46238256068148,205.73647104102824 L171.05605430622066,207.6134133688308 M171.05605430622066,207.6134133688308 L170.85345016139183,209.5181773788555 M170.85345016139183,209.5181773788555 L169.8663601150261,211.3400457275347 M169.8663601150261,211.3400457275347 L168.15209150603894,212.97315088046548 M168.15209150603894,212.97315088046548 L165.81029975086483,214.3225518217351 M165.81029975086483,214.3225518217351 L162.97705454528952,215.30982893402245 M162.97705454528952,215.30982893402245 L159.81705809686935,215.87757171410277 M159.81705809686935,215.87757171410277 L156.51394127693516,215.99280114621902 M156.51394127693516,215.99280114621902 L153.25972216256162,215.64879746847865 M153.25972216256162,215.64879746847865 L150.24349726240723,214.86558639751215 M150.24349726240723,214.86558639751215 L147.6406356832101,213.68866198250186 M167.05190532787628,180.06735671852053 L169.0903692369586,181.5693203918155 M169.0903692369586,181.5693203918155 L170.44581923767396,183.30929465734957 M170.44581923767396,183.30929465734957 L171.0395238855541,185.1861321098503 M171.0395238855541,185.1861321098503 L170.83690830254292,187.09078969201443 M170.83690830254292,187.09078969201443 L169.8497631418524,188.91255624647238 M169.8497631418524,188.91255624647238 L168.13539894115743,190.54557015361118 M168.13539894115743,190.54557015361118 L165.79347667334508,191.89489570148854 M165.79347667334508,191.89489570148854 L162.9600736176337,192.88211765351457 M162.9600736176337,192.88211765351457 L159.79990115829827,193.44982871342413 M159.79990115829827,193.44982871342413 L156.49660039587047,193.56505170761622 M156.49660039587047,193.56505170761622 L153.24220010166638,193.22106724954944 M153.24220010166638,193.22106724954944 L150.22580731350874,192.437899937258 M150.22580731350874,192.437899937258 L147.62280090028625,191.2610412786643 M147.6406356832101,213.68866198250186 L145.60234495516247,212.18646821588612 M145.60234495516247,212.18646821588612 L144.24714428040022,210.4462864044155 M144.24714428040022,210.4462864044155 L143.65371445412518,208.5692911826099 M143.65371445412518,208.5692911826099 L143.85657302067943,206.66454381754988 M143.85657302067943,206.66454381754988 L144.84387810974533,204.84276153725807 M144.84387810974533,204.84276153725807 L146.55826440252252,203.20978712800263 M146.55826440252252,203.20978712800263 L148.90005592727655,201.86053535022435 M148.90005592727655,201.86053535022435 L151.73318304100556,200.87339165128242 M151.73318304100556,200.87339165128242 L154.89296418494,200.30573227061996 M154.89296418494,200.30573227061996 L158.19582652759982,200.19052215318496 M158.19582652759982,200.19052215318496 L161.44980388612703,200.53447293553717 M161.44980388612703,200.53447293553717 L164.4658551308682,201.31757102287563 M164.4658551308682,201.31757102287563 L167.06865734922826,202.4943519422129 M147.62280090028625,191.2610412786643 L145.584396806293,189.75893144283447 M145.584396806293,189.75893144283447 L144.2291208251928,188.01884686061445 M144.2291208251928,188.01884686061445 L143.6356581235234,186.141956514121 M143.6356581235234,186.141956514121 L143.83852815672174,184.23731557699253 M143.83852815672174,184.23731557699253 L144.82588838392505,182.4156350908309 M144.82588838392505,182.4156350908309 L146.54037028163378,180.78275192741611 M146.54037028163378,180.78275192741611 L148.88229231898754,179.43357554300104 M148.88229231898754,179.43357554300104 L151.7155772695607,178.44648700421982 M151.7155772695607,178.44648700421982 L154.87553440055402,177.8788593437863 M154.87553440055402,177.8788593437863 L158.17858065723638,177.7636556641972 M158.17858065723638,177.7636556641972 L161.43273916867508,178.10758722688638 M161.43273916867508,178.10758722688638 L164.4489582822181,178.89064155564594 M164.4489582822181,178.89064155564594 L167.05190532787628,180.06735671852053" stroke="black"  stroke-width="4"  fill="red"/>
<path d="M477.62304122671645,23.554770894895853 L477.6235806529581,1.1377833117435898 M458.2295889874476,34.729162237975174 L458.2290495011847,12.311549180053646 M477.62304122671645,23.554770894895853 L479.6618794896893,25.054155205427776 M479.6618794896893,25.054155205427776 L481.01874946756874,26.791121213592817 M481.01874946756874,26.791121213592817 L481.6147756478631,28.664731803032225 M481.6147756478631,28.664731803032225 L481.4152961103971,30.56610388186749 M481.4152961103971,30.56610388186749 L480.4318894445416,32.38473443141629 M480.4318894445416,32.38473443141629 L478.721680975402,34.01492565240511 M478.721680975402,34.01492565240511 L476.3840585355191,35.36192412643305 M476.3840585355191,35.36192412643305 L473.5548774201333,36.34743380205185 M473.5548774201333,36.34743380205185 L470.39856069466765,36.91417165493266 M470.39856069466765,36.91417165493266 L467.09856647904337,37.0291933801264 M467.09856647904337,37.0291933801264 L463.8466991749123,36.68580982512947 M463.8466991749123,36.68580982512947 L460.8319641030707,35.903984424411476 M460.8319641030707,35.903984424411476 L458.2295889874476,34.729162237975174 M477.6235806529581,1.1377833117435898 L479.6625323439784,2.6370836918026725 M479.6625323439784,2.6370836918026725 L481.019477813128,4.37395247203051 M481.019477813128,4.37395247203051 L481.6155371587569,6.247458186625806 M481.6155371587569,6.247458186625806 L481.416046530811,8.148723838663045 M481.416046530811,8.148723838663045 L480.4325851611772,9.96725259463551 M480.4325851611772,9.96725259463551 L478.72228155165004,11.597352571054046 M478.72228155165004,11.597352571054046 L476.3845290632311,12.944275652401245 M476.3845290632311,12.944275652401245 L473.55519054917414,13.92973016881956 M473.55519054917414,13.92973016881956 L470.39869822298635,14.496436301497795 M470.39869822298635,14.496436301497795 L467.0985204122364,14.61145158897051 M467.0985204122364,14.61145158897051 L463.84647219083,14.268087253038402 M463.84647219083,14.268087253038402 L460.83156939600167,13.486305611075295 M460.83156939600167,13.486305611075295 L458.2290495011847,12.311549180053646 M458.2295889874476,34.729162237975174 L456.1908078886443,33.229633484946476 M456.1908078886443,33.229633484946476 L454.8341137437179,31.492556124255714 M454.8341137437179,31.492556124255714 L454.23832897181893,29.618892781850548 M454.23832897181893,29.618892781850548 L454.4380625013409,27.71753730261537 M454.4380625013409,27.71753730261537 L455.4216862740129,25.8989912614245 M455.4216862740129,25.8989912614245 L457.1320077926621,24.268933097722822 M457.1320077926621,24.268933097722822 L459.4696302325451,22.922083389093302 M459.4696302325451,22.922083389093302 L462.2986982984216,21.936704106544994 M462.2986982984216,21.936704106544994 L465.4547979170706,21.37005076209914 M465.4547979170706,21.37005076209914 L468.7545381406386,21.255048300812973 M468.7545381406386,21.255048300812973 L472.00616403637395,21.598379102794127 M472.00616403637395,21.598379102794127 L475.0207232752626,22.380093151047106 M475.0207232752626,22.380093151047106 L477.62304122671645,23.554770894895853 M458.2290495011847,12.311549180053646 L456.1901549809517,10.81210435754764 M456.1901549809517,10.81210435754764 L454.8333853640627,9.075124224832564 M454.8333853640627,9.075124224832564 L454.23756745369036,7.2015657572898135 M454.23756745369036,7.2015657572898135 L454.4373121020823,5.300316704920704 M454.4373121020823,5.300316704920704 L455.4209906024325,3.4818724572771202 M455.4209906024325,3.4818724572771202 L457.13140727443397,1.8519055380257896 M457.13140727443397,1.8519055380257896 L459.4691597628531,0.5051312220256818 M459.4691597628531,0.5051312220256818 L462.298385214436,-0.4801929012930941 M462.298385214436,-0.4801929012930941 L465.45466040990715,-1.0468145255650825 M465.45466040990715,-1.0468145255650825 L468.75458420021073,-1.161810549211168 M468.75458420021073,-1.161810549211168 L472.0063909863603,-0.8184989662765929 M472.0063909863603,-0.8184989662765929 L475.02111792892816,-0.03682867674007184 M475.02111792892816,-0.03682867674007184 L477.6235806529581,1.1377833117435898" stroke="black"  stroke-width="4"  fill="red"/>
<path d="M400.1509230702297,399.8049006329914 L400.07554517039165,-47.93190507733766 M12.355340243960143,623.6192063472909 L11.848104503010006,175.63308400920184 M400.1509230702297,399.8049006329914 L12.355340243960143,623.6192063472909 M400.07554517039165,-47.93190507733766 L11.848104503010006,175.63308400920184 M400.0000005805649,847.9319050773377 L399.9242864159272,399.696465842239 M12.355340243960143,623.6192063472909 L400.0000005805649,847.9319050773377 M11.848104503010006,175.63308400920184 L399.9242864159272,399.696465842239 M787.795751259227,623.6192070150512 L788.1518954969899,175.6330846762193 M400.0000005805649,847.9319050773377 L787.795751259227,623.6192070150512 M399.9242864159272,399.696465842239 L788.1518954969899,175.6330846762193 M787.795751259227,623.6192070150512 L400.1509230702297,399.8049006329914 M788.1518954969899,175.6330846762193 L400.07554517039165,-47.93190507733766" stroke="black"  stroke-width="4"  fill="red"/></svg>