<svg viewBox="0 0 800 800" xmlns="http://www.w3.org/2000/svg"><path d="M99.14207975405742,170.0178944758539 L99.12532773310772,147.5908997907403 M79.71405855459852,181.212204247314 L79.696223772103,158.7845840820706 M99.14207975405742,170.0178944758539 L101.18043024144151,171.51994204376047 M101.18043024144151,171.51994204376047 L102.5358048840111,173.2600134968104 M102.5358048840111,173.2600134968104 L103.12947661529336,175.1369557795387 M103.12947661529336,175.1369557795387 L102.92687247533001,177.04171974382098 M102.92687247533001,177.04171974382098 L101.93978245266908,178.8635880487484 M101.93978245266908,178.8635880487484 L100.22551388484965,180.49669316246053 M100.22551388484965,180.49669316246053 L97.88372218591314,181.8460940713246 M97.88372218591314,181.8460940713246 L95.05047704837756,182.83337115990264 M95.05047704837756,182.83337115990264 L91.89048067584395,183.40111392634878 M91.89048067584395,183.40111392634878 L88.58736393523327,183.5163433556978 M88.58736393523327,183.5163433556978 L85.33314489900908,183.17233968621866 M85.33314489900908,183.17233968621866 L82.31692007128856,182.38912863406077 M82.31692007128856,182.38912863406077 L79.71405855459852,181.212204247314 M99.12532773310772,147.5908997907403 L101.16379159323685,149.09286342796608 M101.16379159323685,149.09286342796608 L102.51924156140137,150.83283765171504 M102.51924156140137,150.83283765171504 L103.11294619502382,152.709675059144 M103.11294619502382,152.709675059144 L102.91033061687841,154.61433259556827 M102.91033061687841,154.61433259556827 L101.92318547989396,156.43609910627683 M101.92318547989396,156.43609910627683 L100.208821320369,158.0691129741993 M100.208821320369,158.0691129741993 L97.86689910879738,159.41843848967298 M97.86689910879738,159.41843848967298 L95.03349612112953,160.40566041799104 M95.03349612112953,160.40566041799104 L91.87332373768487,160.97337146426705 M91.87332373768487,160.97337146426705 L88.57002305458508,161.0885944556922 M88.57002305458508,161.0885944556922 L85.31562283853458,160.7446100058861 M85.31562283853458,160.7446100058861 L82.29923012281495,159.9614427124022 M82.29923012281495,159.9614427124022 L79.696223772103,158.7845840820706 M79.71405855459852,181.212204247314 L77.67576787550001,179.71001051677317 M77.67576787550001,179.71001051677317 L76.32056723328265,177.96982874709266 M76.32056723328265,177.96982874709266 L75.72713742125865,176.09283357036256 M75.72713742125865,176.09283357036256 L75.92999598294125,174.1880862510446 M75.92999598294125,174.1880862510446 L76.9173010482973,172.3663040145025 M76.9173010482973,172.3663040145025 L78.63168729990389,170.73332964446246 M78.63168729990389,170.73332964446246 L80.97347876842036,169.38407789908626 M80.97347876842036,169.38407789908626 L83.80660581411246,168.39693422385034 M83.80660581411246,168.39693422385034 L86.96638688216558,167.82927485682 M86.96638688216558,167.82927485682 L90.2692491455079,167.71406474215178 M90.2692491455079,167.71406474215178 L93.52322642589161,168.05801551624418 M93.52322642589161,168.05801551624418 L96.539277598203,168.84111358477662 M96.539277598203,168.84111358477662 L99.14207975405742,170.0178944758539 M79.696223772103,158.7845840820706 L77.65781972706156,157.2824742823135 M77.65781972706156,157.2824742823135 L76.30254377850804,155.5423897418812 M76.30254377850804,155.5423897418812 L75.70908109109052,153.66549944046088 M75.70908109109052,153.66549944046088 L75.91195111941687,151.76085854907188 M75.91195111941687,151.76085854907188 L76.899311322909,149.9391781066574 M76.899311322909,149.9391781066574 L78.61379317944488,148.30629498245588 M78.61379317944488,148.30629498245588 L80.95571516055793,146.95711863044102 M80.95571516055793,146.95711863044102 L83.78900004309043,145.97003011536458 M83.78900004309043,145.97003011536458 L86.94895709819815,145.40240246856246 M86.94895709819815,145.40240246856246 L90.25200327555865,145.28719879173994 M90.25200327555865,145.28719879173994 L93.50616170884939,145.63113034616958 M93.50616170884939,145.63113034616958 L96.5223807499587,146.41418465612438 M96.5223807499587,146.41418465612438 L99.12532773310772,147.5908997907403" stroke="black"  stroke-width="4"  fill="red"/>
<path d="M409.6964561736554,-8.921682274271348 L409.69699559988413,-31.338669319085 M390.3030044001158,2.2527088004574125 L390.30246491386583,-20.164903719110328 M409.6964561736554,-8.921682274271348 L411.73529438766604,-7.422297999746888 M411.73529438766604,-7.422297999746888 L413.0921643329605,-5.685332033294458 M413.0921643329605,-5.685332033294458 L413.68819049894154,-3.8117214888494573 M413.68819049894154,-3.8117214888494573 L413.488710966266,-1.9103494556752594 M413.488710966266,-1.9103494556752594 L412.5053043240268,-0.09171894980045181 M412.5053043240268,-0.09171894980045181 L410.79509589595745,1.5384722320396236 M410.79509589595745,1.5384722320396236 L408.45747351221206,2.8854706737197375 M408.45747351221206,2.8854706737197375 L405.6282924647683,3.870980325671667 M405.6282924647683,3.870980325671667 L402.4719758151008,4.43771816494251 M402.4719758151008,4.43771816494251 L399.17198167872516,4.552739887373889 M399.17198167872516,4.552739887373889 L395.9201144526869,4.2093563406232875 M395.9201144526869,4.2093563406232875 L392.9053794532434,3.427530958680677 M392.9053794532434,3.427530958680677 L390.3030044001158,2.2527088004574125 M409.69699559988413,-31.338669319085 L411.73594724193947,-29.839368975031277 M411.73594724193947,-29.839368975031277 L413.0928926785024,-28.10250023651406 M413.0928926785024,-28.10250023651406 L413.68895200981706,-26.22899456691067 M413.68895200981706,-26.22899456691067 L413.4894613866618,-24.32772896053166 M413.4894613866618,-24.32772896053166 L412.50600004064563,-22.509200248230798 M412.50600004064563,-22.509200248230798 L410.795696472191,-20.879100310958734 M410.795696472191,-20.879100310958734 L408.45794403991266,-19.532177261957543 M408.45794403991266,-19.532177261957543 L405.6286055938016,-18.546722769204564 M405.6286055938016,-18.546722769204564 L402.4721133434162,-17.980016650135894 M402.4721133434162,-17.980016650135894 L399.1719356119193,-17.8650013654252 M399.1719356119193,-17.8650013654252 L395.91988746861006,-18.20836569311126 M395.91988746861006,-18.20836569311126 L392.9049847461839,-18.990147316300295 M392.9049847461839,-18.990147316300295 L390.30246491386583,-20.164903719110328 M390.3030044001158,2.2527088004574125 L388.2642233502733,0.7531800834395881 M388.2642233502733,0.7531800834395881 L386.90752923792763,-0.9838972355357782 M386.90752923792763,-0.9838972355357782 L386.3117444803363,-2.857560532945058 M386.3117444803363,-2.857560532945058 L386.51147800506163,-4.758915966519908 M386.51147800506163,-4.758915966519908 L387.4951017541122,-6.577461964038662 M387.4951017541122,-6.577461964038662 L389.20542323168837,-8.207520088594947 M389.20542323168837,-8.207520088594947 L391.543045615434,-9.55436976488022 M391.543045615434,-9.55436976488022 L394.3721136133711,-10.539749023764955 M394.3721136133711,-10.539749023764955 L397.52821315622714,-11.106402354602437 M397.52821315622714,-11.106402354602437 L400.82795330055256,-11.22140481312698 M400.82795330055256,-11.22140481312698 L404.0795791182009,-10.878074019390738 M404.0795791182009,-10.878074019390738 L407.09413828469565,-10.096359989910638 M407.09413828469565,-10.096359989910638 L409.6964561736554,-8.921682274271348 M390.30246491386583,-20.164903719110328 L388.26357044259646,-21.664348505607677 M388.26357044259646,-21.664348505607677 L386.9068008582899,-23.40132859660963 M386.9068008582899,-23.40132859660963 L386.310982962226,-25.274887019159223 M386.310982962226,-25.274887019159223 L386.51072760582105,-27.176136025870278 M386.51072760582105,-27.176136025870278 L387.4944060825485,-28.994580229844246 M387.4944060825485,-28.994580229844246 L389.20482271347475,-30.62454710995246 M389.20482271347475,-30.62454710995246 L391.5425751457533,-31.971321393610083 M391.5425751457533,-31.971321393610083 L394.371800529393,-32.956645493266365 M394.371800529393,-32.956645493266365 L397.5280756490669,-33.52326710393106 M397.5280756490669,-33.52326710393106 L400.82799936012367,-33.63826312481564 M400.82799936012367,-33.63826312481564 L404.0798060681818,-33.29495155012552 M404.0798060681818,-33.29495155012552 L407.0945329383517,-32.51328127936068 M407.0945329383517,-32.51328127936068 L409.69699559988413,-31.338669319085" stroke="black"  stroke-width="4"  fill="red"/>
<path d="M399.99999999999994,399.75068321504307 L399.99999999999994,-48.022262567556254 M12.217253824876877,623.6371561063427 L11.78542448615184,175.61489353878645 M399.99999999999994,399.75068321504307 L12.217253824876877,623.6371561063427 M399.99999999999994,-48.022262567556254 L11.78542448615184,175.61489353878645 M399.99999999999994,848.0222625675563 L399.99999999999994,399.75068321504307 M12.217253824876877,623.6371561063427 L399.99999999999994,848.0222625675563 M11.78542448615184,175.61489353878645 L399.99999999999994,399.75068321504307 M787.782746175123,623.6371561063427 L788.2145755138481,175.61489353878645 M399.99999999999994,848.0222625675563 L787.782746175123,623.6371561063427 M399.99999999999994,399.75068321504307 L788.2145755138481,175.61489353878645 M787.782746175123,623.6371561063427 L399.99999999999994,399.75068321504307 M788.2145755138481,175.61489353878645 L399.99999999999994,-48.022262567556254" stroke="black"  stroke-width="4"  fill="red"/></svg>