<svg viewBox="0 0 800 800" xmlns="http://www.w3.org/2000/svg"><path d="M122.41639248902925,211.50525923325097 L122.3966404974679,186.04875145121673 M100.36016601144314,224.21704488070688 L100.33918485197808,198.75982748557828 M122.41639248902925,211.50525923325097 L124.73031361697531,213.21092105495484 M124.73031361697531,213.21092105495484 L126.26887673604278,215.1868727515959 M126.26887673604278,215.1868727515959 L126.94271426627057,217.31824918192012 M126.94271426627057,217.31824918192012 L126.71258471196677,219.4812187358366 M126.71258471196677,219.4812187358366 L125.59187982118056,221.55005547476642 M125.59187982118056,221.55005547476642 L123.64566419794005,223.40454069934177 M123.64566419794005,223.40454069934177 L120.98707701401884,224.93686340361762 M120.98707701401884,224.93686340361762 L117.77063741872854,226.05794933669551 M117.77063741872854,226.05794933669551 L114.18319971202612,226.70267830023914 M114.18319971202612,226.70267830023914 L110.43339967966176,226.83350372757457 M110.43339967966176,226.83350372757457 L106.73905632476544,226.44289193182559 M106.73905632476544,226.44289193182559 L103.31500677601048,225.55348627974354 M103.31500677601048,225.55348627974354 L100.36016601144314,224.21704488070688 M122.3966404974679,186.04875145121673 L124.71069030839851,187.75431805276935 M124.71069030839851,187.75431805276935 L126.2493389198628,189.73015944185045 M126.2493389198628,189.73015944185045 L126.923213785146,191.86141689015912 M126.923213785146,191.86141689015912 L126.6930712329862,194.0242657006695 M126.6930712329862,194.0242657006695 L125.57230376640712,196.09298695310216 M125.57230376640712,196.09298695310216 L123.62597962125045,197.9473686584738 M123.62597962125045,197.9473686584738 L120.96724427733636,199.47960582824243 M120.96724427733636,199.47960582824243 L117.7506254951524,200.60062918284328 M117.7506254951524,200.60062918284328 L114.16298798490311,201.24532215820423 M114.16298798490311,201.24532215820423 L110.41297915353425,201.37614028300837 M110.41297915353425,201.37614028300837 L106.71843013430839,200.9855502908044 M106.71843013430839,200.9855502908044 L103.29419001720845,200.09619428470043 M103.29419001720845,200.09619428470043 L100.33918485197808,198.75982748557828 M100.36016601144314,224.21704488070688 L98.04635485482572,222.5111928507407 M98.04635485482572,222.5111928507407 L96.50794718683193,220.53514014127913 M96.50794718683193,220.53514014127913 L95.83442634300883,218.40367940618748 M95.83442634300883,218.40367940618748 L96.06480262963765,216.24075299769333 M96.06480262963765,216.24075299769333 L97.18579368835714,214.17198974079412 M97.18579368835714,214.17198974079412 L99.13210082064114,212.31767721487716 M99.13210082064114,212.31767721487716 L101.79068773321887,210.7855238792733 M101.79068773321887,210.7855238792733 L105.00703533894153,209.66456518384683 M105.00703533894153,209.66456518384683 L108.5941865694274,209.0199551641362 M108.5941865694274,209.0199551641362 L112.34373980405485,208.8891274202055 M112.34373980405485,208.8891274202055 L116.03776666498493,209.27970340324924 M116.03776666498493,209.27970340324924 L119.4616611688732,210.1689565197485 M119.4616611688732,210.1689565197485 L122.41639248902925,211.50525923325097 M100.33918485197808,198.75982748557828 L98.02524502244302,197.05407067722592 M98.02524502244302,197.05407067722592 L96.48675188156841,195.07812827390518 M96.48675188156841,195.07812827390518 L95.81319373562047,192.94678652219153 M95.81319373562047,192.94678652219153 L96.04358305006565,190.78398085583154 M96.04358305006565,190.78398085583154 L97.1646367139499,188.71533308668384 M97.1646367139499,188.71533308668384 L99.11105238081348,186.86112407867955 M99.11105238081348,186.86112407867955 L101.76978745333884,185.3290562775575 M101.76978745333884,185.3290562775575 L104.98631423321137,184.20816016185472 M104.98631423321137,184.20816016185472 L108.57366523782065,183.56358612904353 M108.57366523782065,183.56358612904353 L112.3234272414814,183.43276568890997 M112.3234272414814,183.43276568890997 L116.0176597338426,183.82331986706416 M116.0176597338426,183.82331986706416 L119.44174478662762,184.71252333904218 M119.44174478662762,184.71252333904218 L122.3966404974679,186.04875145121673" stroke="black"  stroke-width="4"  fill="red"/>
<path d="M488.1913392203545,0.6961834929718975 L488.19195150396655,-24.748544753129295 M466.1758247534619,13.384505364621134 L466.17521240173016,-12.06093248927101 M488.1913392203545,0.6961834929718975 L490.5058355068918,2.3987076188378182 M490.5058355068918,2.3987076188378182 L492.04615901549386,4.371001518479318 M492.04615901549386,4.371001518479318 L492.72276999263477,6.498452896546269 M492.72276999263477,6.498452896546269 L492.4963201097567,8.657426945280918 M492.4963201097567,8.657426945280918 L491.37995342588283,10.722449460084363 M491.37995342588283,10.722449460084363 L489.43851881223765,12.573502478268324 M489.43851881223765,12.573502478268324 L486.7848416840786,14.102995186985197 M486.7848416840786,14.102995186985197 L483.5731454453088,15.222023820016716 M483.5731454453088,15.222023820016716 L479.990083730043,15.865544528018404 M479.990083730043,15.865544528018404 L476.2439188310278,15.996149642226271 M476.2439188310278,15.996149642226271 L472.55238776837575,15.606243749681084 M472.55238776837575,15.606243749681084 L469.13005003610937,14.71849497297211 M469.13005003610937,14.71849497297211 L466.1758247534619,13.384505364621134 M488.19195150396655,-24.748544753129295 L490.5065765386597,-23.046115847282408 M490.5065765386597,-23.046115847282408 L492.0469857347255,-21.073932253774785 M492.0469857347255,-21.073932253774785 L492.72363435666034,-18.94659985733699 M492.72363435666034,-18.94659985733699 L492.4971718853696,-16.787746550938436 M492.4971718853696,-16.787746550938436 L491.3807431091743,-14.722839522030085 M491.3807431091743,-14.722839522030085 L489.4392005050463,-12.87189002178036 M489.4392005050463,-12.87189002178036 L486.78537576340324,-11.342482846859696 M486.78537576340324,-11.342482846859696 L483.5735008669816,-10.2235167925258 M483.5735008669816,-10.2235167925258 L479.99023983356165,-9.580032071430026 M479.99023983356165,-9.580032071430026 L476.24386654222843,-9.449434260884516 M476.24386654222843,-9.449434260884516 L472.5521301267914,-9.839318349197356 M472.5521301267914,-9.839318349197356 L469.12960201810876,-10.72701748113542 M469.12960201810876,-10.72701748113542 L466.17521240173016,-12.06093248927101 M466.1758247534619,13.384505364621134 L463.8613933513054,11.681817246948981 M463.8613933513054,11.681817246948981 L462.3212694251,9.709396923975078 M462.3212694251,9.709396923975078 L461.6449324620743,7.581885653187328 M461.6449324620743,7.581885653187328 L461.87167064201344,5.422930450510535 M461.87167064201344,5.422930450510535 L462.9882837567838,3.358003881696277 M462.9882837567838,3.358003881696277 L464.9298466879579,1.5071019293833388 M464.9298466879579,1.5071019293833388 L467.5835238161172,-0.022221879550500034 M467.5835238161172,-0.022221879550500034 L470.7950917373584,-1.1411024718815952 M470.7950917373584,-1.1411024718815952 L474.3779070217275,-1.7845272338062728 M474.3779070217275,-1.7845272338062728 L478.12378362368116,-1.9151104766829121 M478.12378362368116,-1.9151104766829121 L481.8150406722176,-1.525264476915197 M481.8150406722176,-1.525264476915197 L485.2371788220875,-0.6376421234699592 M485.2371788220875,-0.6376421234699592 L488.1913392203545,0.6961834929718975 M466.17521240173016,-12.06093248927101 L463.86065225892855,-13.763525386874221 M463.86065225892855,-13.763525386874221 L462.3204426671719,-15.735835403676106 M462.3204426671719,-15.735835403676106 L461.6440680898378,-17.863227692816395 M461.6440680898378,-17.863227692816395 L461.8708188904102,-20.022062153078764 M461.8708188904102,-20.022062153078764 L462.98749412462666,-22.086873236026975 M462.98749412462666,-22.086873236026975 L464.9291650609975,-23.937671670535792 M464.9291650609975,-23.937671670535792 L467.5829898026407,-25.46690994572475 M467.5829898026407,-25.46690994572475 L470.79473636681985,-26.585727959319 M470.79473636681985,-26.585727959319 L474.3777509422185,-27.2291167343667 M474.3777509422185,-27.2291167343667 L478.1238359042695,-27.35969267367136 M478.1238359042695,-27.35969267367136 L481.81529827510565,-26.969868478118087 M481.81529827510565,-26.969868478118087 L485.2376267794792,-26.082295769405505 M485.2376267794792,-26.082295769405505 L488.19195150396655,-24.748544753129295" stroke="black"  stroke-width="4"  fill="red"/>
<path d="M477.1838881287142,408.6971055231618 L477.1838881287142,-43.701829786372514 M23.694551316308605,670.519296206429 L23.24514202932386,217.8609751269497 M477.1838881287142,408.6971055231618 L23.694551316308605,670.519296206429 M477.1838881287142,-43.701829786372514 L23.24514202932386,217.8609751269497 M322.9689211685414,843.7018297863725 L322.81597787155926,390.8722637562713 M23.694551316308605,670.519296206429 L322.9689211685414,843.7018297863725 M23.24514202932386,217.8609751269497 L322.81597787155926,390.8722637562713 M776.4583915830308,581.4833206541031 L776.7548579706761,128.91314043983436 M322.9689211685414,843.7018297863725 L776.4583915830308,581.4833206541031 M322.81597787155926,390.8722637562713 L776.7548579706761,128.91314043983436 M776.4583915830308,581.4833206541031 L477.1838881287142,408.6971055231618 M776.7548579706761,128.91314043983436 L477.1838881287142,-43.701829786372514" stroke="black"  stroke-width="4"  fill="red"/></svg>